<?xml version="1.0" encoding="UTF-8" standalone="no"?><svg xmlns="http://www.w3.org/2000/svg" xmlns:xlink="http://www.w3.org/1999/xlink" contentStyleType="text/css" height="1185px" preserveAspectRatio="none" style="width:1607px;height:1185px;background:#FFFFFF;" version="1.1" viewBox="0 0 1607 1185" width="1607px" zoomAndPan="magnify"><defs/><g><rect fill="none" height="26.2969" id="_title" style="stroke:none;stroke-width:1.0;" width="410" x="594.75" y="10"/><text fill="#000000" font-family="sans-serif" font-size="14" font-weight="bold" lengthAdjust="spacing" textLength="400" x="599.75" y="27.9951">User Registration (Length-Prefixed JSON over TCP)</text><rect fill="#FFFFFF" height="809.4531" style="stroke:#181818;stroke-width:1.0;" width="10" x="388.5" y="277.125"/><line style="stroke:#181818;stroke-width:0.5;stroke-dasharray:5.0,5.0;" x1="27" x2="27" y1="118.5938" y2="1104.5781"/><line style="stroke:#181818;stroke-width:0.5;stroke-dasharray:5.0,5.0;" x1="393" x2="393" y1="118.5938" y2="1104.5781"/><line style="stroke:#181818;stroke-width:0.5;stroke-dasharray:5.0,5.0;" x1="820.5" x2="820.5" y1="118.5938" y2="1104.5781"/><line style="stroke:#181818;stroke-width:0.5;stroke-dasharray:5.0,5.0;" x1="1088.5" x2="1088.5" y1="118.5938" y2="1104.5781"/><line style="stroke:#181818;stroke-width:0.5;stroke-dasharray:5.0,5.0;" x1="1213.5" x2="1213.5" y1="118.5938" y2="1104.5781"/><line style="stroke:#181818;stroke-width:0.5;stroke-dasharray:5.0,5.0;" x1="1555.5" x2="1555.5" y1="118.5938" y2="1104.5781"/><text fill="#000000" font-family="sans-serif" font-size="14" lengthAdjust="spacing" textLength="39" x="5" y="115.292">Client</text><ellipse cx="27.5" cy="50.7969" fill="#E2E2F0" rx="8" ry="8" style="stroke:#181818;stroke-width:0.5;"/><path d="M27.5,58.7969 L27.5,85.7969 M14.5,66.7969 L40.5,66.7969 M27.5,85.7969 L14.5,100.7969 M27.5,85.7969 L40.5,100.7969 " fill="none" style="stroke:#181818;stroke-width:0.5;"/><text fill="#000000" font-family="sans-serif" font-size="14" lengthAdjust="spacing" textLength="39" x="5" y="1116.5732">Client</text><ellipse cx="27.5" cy="1128.375" fill="#E2E2F0" rx="8" ry="8" style="stroke:#181818;stroke-width:0.5;"/><path d="M27.5,1136.375 L27.5,1163.375 M14.5,1144.375 L40.5,1144.375 M27.5,1163.375 L14.5,1178.375 M27.5,1163.375 L40.5,1178.375 " fill="none" style="stroke:#181818;stroke-width:0.5;"/><rect fill="#E2E2F0" height="30.2969" rx="2.5" ry="2.5" style="stroke:#181818;stroke-width:0.5;" width="139" x="324" y="87.2969"/><text fill="#000000" font-family="sans-serif" font-size="14" lengthAdjust="spacing" textLength="125" x="331" y="107.292">WorkerThread (W)</text><rect fill="#E2E2F0" height="30.2969" rx="2.5" ry="2.5" style="stroke:#181818;stroke-width:0.5;" width="139" x="324" y="1103.5781"/><text fill="#000000" font-family="sans-serif" font-size="14" lengthAdjust="spacing" textLength="125" x="331" y="1123.5732">WorkerThread (W)</text><rect fill="#E2E2F0" height="30.2969" rx="2.5" ry="2.5" style="stroke:#181818;stroke-width:0.5;" width="152" x="744.5" y="87.2969"/><text fill="#000000" font-family="sans-serif" font-size="14" lengthAdjust="spacing" textLength="138" x="751.5" y="107.292">ClientState (sender)</text><rect fill="#E2E2F0" height="30.2969" rx="2.5" ry="2.5" style="stroke:#181818;stroke-width:0.5;" width="152" x="744.5" y="1103.5781"/><text fill="#000000" font-family="sans-serif" font-size="14" lengthAdjust="spacing" textLength="138" x="751.5" y="1123.5732">ClientState (sender)</text><rect fill="#E2E2F0" height="30.2969" rx="2.5" ry="2.5" style="stroke:#181818;stroke-width:0.5;" width="124" x="1026.5" y="87.2969"/><text fill="#000000" font-family="sans-serif" font-size="14" lengthAdjust="spacing" textLength="110" x="1033.5" y="107.292">ProtocolHandler</text><rect fill="#E2E2F0" height="30.2969" rx="2.5" ry="2.5" style="stroke:#181818;stroke-width:0.5;" width="124" x="1026.5" y="1103.5781"/><text fill="#000000" font-family="sans-serif" font-size="14" lengthAdjust="spacing" textLength="110" x="1033.5" y="1123.5732">ProtocolHandler</text><rect fill="#E2E2F0" height="30.2969" rx="2.5" ry="2.5" style="stroke:#181818;stroke-width:0.5;" width="106" x="1160.5" y="87.2969"/><text fill="#000000" font-family="sans-serif" font-size="14" lengthAdjust="spacing" textLength="92" x="1167.5" y="107.292">AuthManager</text><rect fill="#E2E2F0" height="30.2969" rx="2.5" ry="2.5" style="stroke:#181818;stroke-width:0.5;" width="106" x="1160.5" y="1103.5781"/><text fill="#000000" font-family="sans-serif" font-size="14" lengthAdjust="spacing" textLength="92" x="1167.5" y="1123.5732">AuthManager</text><rect fill="#E2E2F0" height="30.2969" rx="2.5" ry="2.5" style="stroke:#181818;stroke-width:0.5;" width="80" x="1515.5" y="87.2969"/><text fill="#000000" font-family="sans-serif" font-size="14" lengthAdjust="spacing" textLength="66" x="1522.5" y="107.292">Database</text><rect fill="#E2E2F0" height="30.2969" rx="2.5" ry="2.5" style="stroke:#181818;stroke-width:0.5;" width="80" x="1515.5" y="1103.5781"/><text fill="#000000" font-family="sans-serif" font-size="14" lengthAdjust="spacing" textLength="66" x="1522.5" y="1123.5732">Database</text><rect fill="#FFFFFF" height="809.4531" style="stroke:#181818;stroke-width:1.0;" width="10" x="388.5" y="277.125"/><rect fill="#EEEEEE" height="3" style="stroke:#EEEEEE;stroke-width:1.0;" width="1600.5" x="0" y="149.1602"/><line style="stroke:#000000;stroke-width:1.0;" x1="0" x2="1600.5" y1="149.1602" y2="149.1602"/><line style="stroke:#000000;stroke-width:1.0;" x1="0" x2="1600.5" y1="152.1602" y2="152.1602"/><rect fill="#EEEEEE" height="23.1328" style="stroke:#000000;stroke-width:2.0;" width="148" x="726.25" y="138.5938"/><text fill="#000000" font-family="sans-serif" font-size="13" font-weight="bold" lengthAdjust="spacing" textLength="129" x="732.25" y="154.6606">TCP Send (Client)</text><line style="stroke:#181818;stroke-width:1.0;" x1="27.5" x2="69.5" y1="192.8594" y2="192.8594"/><line style="stroke:#181818;stroke-width:1.0;" x1="69.5" x2="69.5" y1="192.8594" y2="205.8594"/><line style="stroke:#181818;stroke-width:1.0;" x1="28.5" x2="69.5" y1="205.8594" y2="205.8594"/><polygon fill="#181818" points="38.5,201.8594,28.5,205.8594,38.5,209.8594,34.5,205.8594" style="stroke:#181818;stroke-width:1.0;"/><text fill="#000000" font-family="sans-serif" font-size="13" lengthAdjust="spacing" textLength="352" x="34.5" y="187.7935">build JSON {"type":"REGISTER","username","password"}</text><line style="stroke:#181818;stroke-width:1.0;" x1="27.5" x2="69.5" y1="234.9922" y2="234.9922"/><line style="stroke:#181818;stroke-width:1.0;" x1="69.5" x2="69.5" y1="234.9922" y2="247.9922"/><line style="stroke:#181818;stroke-width:1.0;" x1="28.5" x2="69.5" y1="247.9922" y2="247.9922"/><polygon fill="#181818" points="38.5,243.9922,28.5,247.9922,38.5,251.9922,34.5,247.9922" style="stroke:#181818;stroke-width:1.0;"/><text fill="#000000" font-family="sans-serif" font-size="13" lengthAdjust="spacing" textLength="167" x="34.5" y="229.9263">prefix 4-byte length (NBO)</text><polygon fill="#181818" points="376.5,273.125,386.5,277.125,376.5,281.125,380.5,277.125" style="stroke:#181818;stroke-width:1.0;"/><line style="stroke:#181818;stroke-width:1.0;" x1="27.5" x2="382.5" y1="277.125" y2="277.125"/><text fill="#000000" font-family="sans-serif" font-size="13" lengthAdjust="spacing" textLength="131" x="34.5" y="272.0591">send( length || json )</text><rect fill="#EEEEEE" height="3" style="stroke:#EEEEEE;stroke-width:1.0;" width="1600.5" x="0" y="305.6914"/><line style="stroke:#000000;stroke-width:1.0;" x1="0" x2="1600.5" y1="305.6914" y2="305.6914"/><line style="stroke:#000000;stroke-width:1.0;" x1="0" x2="1600.5" y1="308.6914" y2="308.6914"/><rect fill="#EEEEEE" height="23.1328" style="stroke:#000000;stroke-width:2.0;" width="141" x="729.75" y="295.125"/><text fill="#000000" font-family="sans-serif" font-size="13" font-weight="bold" lengthAdjust="spacing" textLength="122" x="735.75" y="311.1919">epoll read-ready</text><line style="stroke:#181818;stroke-width:1.0;" x1="398.5" x2="440.5" y1="349.3906" y2="349.3906"/><line style="stroke:#181818;stroke-width:1.0;" x1="440.5" x2="440.5" y1="349.3906" y2="362.3906"/><line style="stroke:#181818;stroke-width:1.0;" x1="399.5" x2="440.5" y1="362.3906" y2="362.3906"/><polygon fill="#181818" points="409.5,358.3906,399.5,362.3906,409.5,366.3906,405.5,362.3906" style="stroke:#181818;stroke-width:1.0;"/><text fill="#000000" font-family="sans-serif" font-size="13" lengthAdjust="spacing" textLength="224" x="405.5" y="344.3247">epoll_wait() returns fd with EPOLLIN</text><polygon fill="#181818" points="808.5,402.6563,818.5,406.6563,808.5,410.6563,812.5,406.6563" style="stroke:#181818;stroke-width:1.0;"/><line style="stroke:#181818;stroke-width:1.0;" x1="398.5" x2="814.5" y1="406.6563" y2="406.6563"/><text fill="#000000" font-family="sans-serif" font-size="13" lengthAdjust="spacing" textLength="133" x="405.5" y="386.4575">handleReadEvent(fd)</text><text fill="#000000" font-family="sans-serif" font-size="13" lengthAdjust="spacing" textLength="211" x="405.5" y="401.5903">accumulate bytes into recvBuffer</text><line style="stroke:#181818;stroke-width:1.0;" x1="820.5" x2="862.5" y1="450.9219" y2="450.9219"/><line style="stroke:#181818;stroke-width:1.0;" x1="862.5" x2="862.5" y1="450.9219" y2="463.9219"/><line style="stroke:#181818;stroke-width:1.0;" x1="821.5" x2="862.5" y1="463.9219" y2="463.9219"/><polygon fill="#181818" points="831.5,459.9219,821.5,463.9219,831.5,467.9219,827.5,463.9219" style="stroke:#181818;stroke-width:1.0;"/><text fill="#000000" font-family="sans-serif" font-size="13" lengthAdjust="spacing" textLength="241" x="827.5" y="430.7231">if recvBuffer &gt;= 4 bytes, parse length</text><text fill="#000000" font-family="sans-serif" font-size="13" lengthAdjust="spacing" textLength="254" x="827.5" y="445.856">if full frame available -&gt; extract payload</text><polygon fill="#181818" points="1076.5,489.0547,1086.5,493.0547,1076.5,497.0547,1080.5,493.0547" style="stroke:#181818;stroke-width:1.0;"/><line style="stroke:#181818;stroke-width:1.0;" x1="820.5" x2="1082.5" y1="493.0547" y2="493.0547"/><text fill="#000000" font-family="sans-serif" font-size="13" lengthAdjust="spacing" textLength="139" x="827.5" y="487.9888">parseCommand(json)</text><rect fill="#EEEEEE" height="3" style="stroke:#EEEEEE;stroke-width:1.0;" width="1600.5" x="0" y="521.6211"/><line style="stroke:#000000;stroke-width:1.0;" x1="0" x2="1600.5" y1="521.6211" y2="521.6211"/><line style="stroke:#000000;stroke-width:1.0;" x1="0" x2="1600.5" y1="524.6211" y2="524.6211"/><rect fill="#EEEEEE" height="23.1328" style="stroke:#000000;stroke-width:2.0;" width="92" x="754.25" y="511.0547"/><text fill="#000000" font-family="sans-serif" font-size="13" font-weight="bold" lengthAdjust="spacing" textLength="73" x="760.25" y="527.1216">Auth path</text><polygon fill="#181818" points="409.5,561.3203,399.5,565.3203,409.5,569.3203,405.5,565.3203" style="stroke:#181818;stroke-width:1.0;"/><line style="stroke:#181818;stroke-width:1.0;" x1="403.5" x2="1087.5" y1="565.3203" y2="565.3203"/><text fill="#000000" font-family="sans-serif" font-size="13" lengthAdjust="spacing" textLength="196" x="415.5" y="560.2544">processCommand(state, cmd)</text><polygon fill="#181818" points="1201.5,590.4531,1211.5,594.4531,1201.5,598.4531,1205.5,594.4531" style="stroke:#181818;stroke-width:1.0;"/><line style="stroke:#181818;stroke-width:1.0;" x1="398.5" x2="1207.5" y1="594.4531" y2="594.4531"/><text fill="#000000" font-family="sans-serif" font-size="13" lengthAdjust="spacing" textLength="222" x="405.5" y="589.3872">registerUser(username, password)</text><polygon fill="#181818" points="1543.5,634.7188,1553.5,638.7188,1543.5,642.7188,1547.5,638.7188" style="stroke:#181818;stroke-width:1.0;"/><line style="stroke:#181818;stroke-width:1.0;" x1="1213.5" x2="1549.5" y1="638.7188" y2="638.7188"/><text fill="#000000" font-family="sans-serif" font-size="13" lengthAdjust="spacing" textLength="318" x="1220.5" y="618.52">insertUser( username, hashPassword(password) )</text><text fill="#000000" font-family="sans-serif" font-size="13" lengthAdjust="spacing" textLength="203" x="1220.5" y="633.6528">(prepared stmt, bound params)</text><polygon fill="#181818" points="1224.5,663.8516,1214.5,667.8516,1224.5,671.8516,1220.5,667.8516" style="stroke:#181818;stroke-width:1.0;"/><line style="stroke:#181818;stroke-width:1.0;stroke-dasharray:2.0,2.0;" x1="1218.5" x2="1554.5" y1="667.8516" y2="667.8516"/><text fill="#000000" font-family="sans-serif" font-size="13" lengthAdjust="spacing" textLength="151" x="1230.5" y="662.7856">ok | constraint_violation</text><polygon fill="#181818" points="409.5,692.9844,399.5,696.9844,409.5,700.9844,405.5,696.9844" style="stroke:#181818;stroke-width:1.0;"/><line style="stroke:#181818;stroke-width:1.0;stroke-dasharray:2.0,2.0;" x1="403.5" x2="1212.5" y1="696.9844" y2="696.9844"/><text fill="#000000" font-family="sans-serif" font-size="13" lengthAdjust="spacing" textLength="102" x="415.5" y="691.9185">success | failure</text><rect fill="#EEEEEE" height="3" style="stroke:#EEEEEE;stroke-width:1.0;" width="1600.5" x="0" y="725.5508"/><line style="stroke:#000000;stroke-width:1.0;" x1="0" x2="1600.5" y1="725.5508" y2="725.5508"/><line style="stroke:#000000;stroke-width:1.0;" x1="0" x2="1600.5" y1="728.5508" y2="728.5508"/><rect fill="#EEEEEE" height="23.1328" style="stroke:#000000;stroke-width:2.0;" width="129" x="735.75" y="714.9844"/><text fill="#000000" font-family="sans-serif" font-size="13" font-weight="bold" lengthAdjust="spacing" textLength="110" x="741.75" y="731.0513">Build response</text><polygon fill="#181818" points="1076.5,765.25,1086.5,769.25,1076.5,773.25,1080.5,769.25" style="stroke:#181818;stroke-width:1.0;"/><line style="stroke:#181818;stroke-width:1.0;" x1="398.5" x2="1082.5" y1="769.25" y2="769.25"/><text fill="#000000" font-family="sans-serif" font-size="13" lengthAdjust="spacing" textLength="316" x="405.5" y="764.1841">serializeResponse(REGISTER_RESPONSE / ERROR)</text><polygon fill="#181818" points="409.5,794.3828,399.5,798.3828,409.5,802.3828,405.5,798.3828" style="stroke:#181818;stroke-width:1.0;"/><line style="stroke:#181818;stroke-width:1.0;stroke-dasharray:2.0,2.0;" x1="403.5" x2="1087.5" y1="798.3828" y2="798.3828"/><text fill="#000000" font-family="sans-serif" font-size="13" lengthAdjust="spacing" textLength="88" x="415.5" y="793.3169">jsonResponse</text><rect fill="#EEEEEE" height="3" style="stroke:#EEEEEE;stroke-width:1.0;" width="1600.5" x="0" y="826.9492"/><line style="stroke:#000000;stroke-width:1.0;" x1="0" x2="1600.5" y1="826.9492" y2="826.9492"/><line style="stroke:#000000;stroke-width:1.0;" x1="0" x2="1600.5" y1="829.9492" y2="829.9492"/><rect fill="#EEEEEE" height="23.1328" style="stroke:#000000;stroke-width:2.0;" width="297" x="651.75" y="816.3828"/><text fill="#000000" font-family="sans-serif" font-size="13" font-weight="bold" lengthAdjust="spacing" textLength="278" x="657.75" y="832.4497">Enqueue outbound; toggle EPOLLOUT</text><polygon fill="#181818" points="808.5,881.7813,818.5,885.7813,808.5,889.7813,812.5,885.7813" style="stroke:#181818;stroke-width:1.0;"/><line style="stroke:#181818;stroke-width:1.0;" x1="398.5" x2="814.5" y1="885.7813" y2="885.7813"/><text fill="#000000" font-family="sans-serif" font-size="13" lengthAdjust="spacing" textLength="200" x="405.5" y="865.5825">queueResponse(jsonResponse)</text><text fill="#000000" font-family="sans-serif" font-size="13" lengthAdjust="spacing" textLength="142" x="405.5" y="880.7153">append to sendQueue</text><line style="stroke:#181818;stroke-width:1.0;" x1="398.5" x2="440.5" y1="914.9141" y2="914.9141"/><line style="stroke:#181818;stroke-width:1.0;" x1="440.5" x2="440.5" y1="914.9141" y2="927.9141"/><line style="stroke:#181818;stroke-width:1.0;" x1="399.5" x2="440.5" y1="927.9141" y2="927.9141"/><polygon fill="#181818" points="409.5,923.9141,399.5,927.9141,409.5,931.9141,405.5,927.9141" style="stroke:#181818;stroke-width:1.0;"/><text fill="#000000" font-family="sans-serif" font-size="13" lengthAdjust="spacing" textLength="293" x="405.5" y="909.8481">epoll_ctl(EPOLL_CTL_MOD, fd, add EPOLLOUT)</text><rect fill="#EEEEEE" height="3" style="stroke:#EEEEEE;stroke-width:1.0;" width="1600.5" x="0" y="956.4805"/><line style="stroke:#000000;stroke-width:1.0;" x1="0" x2="1600.5" y1="956.4805" y2="956.4805"/><line style="stroke:#000000;stroke-width:1.0;" x1="0" x2="1600.5" y1="959.4805" y2="959.4805"/><rect fill="#EEEEEE" height="23.1328" style="stroke:#000000;stroke-width:2.0;" width="190" x="705.25" y="945.9141"/><text fill="#000000" font-family="sans-serif" font-size="13" font-weight="bold" lengthAdjust="spacing" textLength="171" x="711.25" y="961.981">epoll write-ready; flush</text><line style="stroke:#181818;stroke-width:1.0;" x1="398.5" x2="440.5" y1="1000.1797" y2="1000.1797"/><line style="stroke:#181818;stroke-width:1.0;" x1="440.5" x2="440.5" y1="1000.1797" y2="1013.1797"/><line style="stroke:#181818;stroke-width:1.0;" x1="399.5" x2="440.5" y1="1013.1797" y2="1013.1797"/><polygon fill="#181818" points="409.5,1009.1797,399.5,1013.1797,409.5,1017.1797,405.5,1013.1797" style="stroke:#181818;stroke-width:1.0;"/><text fill="#000000" font-family="sans-serif" font-size="13" lengthAdjust="spacing" textLength="238" x="405.5" y="995.1138">epoll_wait() returns fd with EPOLLOUT</text><polygon fill="#181818" points="808.5,1053.4453,818.5,1057.4453,808.5,1061.4453,812.5,1057.4453" style="stroke:#181818;stroke-width:1.0;"/><line style="stroke:#181818;stroke-width:1.0;" x1="398.5" x2="814.5" y1="1057.4453" y2="1057.4453"/><text fill="#000000" font-family="sans-serif" font-size="13" lengthAdjust="spacing" textLength="133" x="405.5" y="1037.2466">handleWriteEvent(fd)</text><text fill="#000000" font-family="sans-serif" font-size="13" lengthAdjust="spacing" textLength="353" x="405.5" y="1052.3794">while(sendQueue not empty){send(); if EAGAIN break;}</text><polygon fill="#181818" points="404.5,1082.5781,394.5,1086.5781,404.5,1090.5781,400.5,1086.5781" style="stroke:#181818;stroke-width:1.0;"/><line style="stroke:#181818;stroke-width:1.0;" x1="398.5" x2="819.5" y1="1086.5781" y2="1086.5781"/><text fill="#000000" font-family="sans-serif" font-size="13" lengthAdjust="spacing" textLength="398" x="410.5" y="1081.5122">if queue empty -&gt; epoll_ctl(EPOLL_CTL_MOD, drop EPOLLOUT)</text><!--MD5=[bf7e3cc9934ca6bc4a885b7d5a724501]
@startuml
title User Registration (Length-Prefixed JSON over TCP)

actor Client
participant "WorkerThread (W)" as W
participant "ClientState (sender)" as CS
participant ProtocolHandler as PH
participant AuthManager as AM
participant Database as DB

== TCP Send (Client) ==
Client -> Client: build JSON {"type":"REGISTER","username","password"}
Client -> Client: prefix 4-byte length (NBO)
Client -> W: send( length || json )

== epoll read-ready ==
activate W
W -> W: epoll_wait() returns fd with EPOLLIN
W -> CS: handleReadEvent(fd)\naccumulate bytes into recvBuffer
CS -> CS: if recvBuffer >= 4 bytes, parse length\nif full frame available -> extract payload
CS -> PH: parseCommand(json)

== Auth path ==
PH -> W: processCommand(state, cmd)
W -> AM: registerUser(username, password)
AM -> DB: insertUser( username, hashPassword(password) )\n(prepared stmt, bound params)
DB - -> AM: ok | constraint_violation
AM - -> W: success | failure

== Build response ==
W -> PH: serializeResponse(REGISTER_RESPONSE / ERROR)
PH - -> W: jsonResponse

== Enqueue outbound; toggle EPOLLOUT ==
W -> CS: queueResponse(jsonResponse)\nappend to sendQueue
W -> W: epoll_ctl(EPOLL_CTL_MOD, fd, add EPOLLOUT)

== epoll write-ready; flush ==
W -> W: epoll_wait() returns fd with EPOLLOUT
W -> CS: handleWriteEvent(fd)\nwhile(sendQueue not empty){send(); if EAGAIN break;}
CS -> W: if queue empty -> epoll_ctl(EPOLL_CTL_MOD, drop EPOLLOUT)

deactivate W
@enduml

PlantUML version 1.2022.7(Mon Aug 22 17:01:30 UTC 2022)
(GPL source distribution)
Java Runtime: OpenJDK Runtime Environment
JVM: OpenJDK 64-Bit Server VM
Default Encoding: UTF-8
Language: en
Country: null
--></g></svg>